<svg width="50" height="50" viewBox="0 0 50 50" fill="none" xmlns="http://www.w3.org/2000/svg">
<g clip-path="url(#clip0_130_788)">
<path d="M17.359 11.7401C17.2153 12.1822 17.3567 12.6561 17.7191 12.9474L20.9451 15.5403L19.8593 19.5344C19.7374 19.9828 19.9016 20.4492 20.2778 20.7229C20.6542 20.9959 21.1483 21.0079 21.5372 20.7534L25.0002 18.4865L28.4633 20.7535C28.65 20.8757 28.8608 20.9364 29.0713 20.9364C29.2994 20.9364 29.5271 20.865 29.7225 20.7229C30.0989 20.4495 30.2632 19.9828 30.141 19.5344L29.0552 15.5404L32.2811 12.9476C32.6437 12.6563 32.7851 12.1824 32.6413 11.7401C32.4977 11.2978 32.1047 10.9975 31.6403 10.975L27.5063 10.7734L26.0371 6.9041C25.8722 6.46943 25.465 6.18848 25.0001 6.18848C24.5352 6.18848 24.128 6.46934 23.9632 6.904L22.494 10.7735L18.3602 10.975C17.8956 10.9975 17.5026 11.2978 17.359 11.7401ZM22.8664 12.3196C23.307 12.2981 23.6929 12.0178 23.8492 11.6055L25 8.57471L26.1508 11.6058C26.3074 12.018 26.6934 12.2981 27.1336 12.3196L30.3716 12.4775L27.8446 14.5085C27.5008 14.785 27.3535 15.2386 27.4692 15.664L28.3197 18.7923L25.6072 17.0166C25.4228 16.8959 25.2113 16.8355 24.9999 16.8355C24.7885 16.8355 24.5769 16.896 24.3923 17.0167L21.68 18.7923L22.5305 15.6642C22.6463 15.2385 22.4989 14.7848 22.155 14.5085L19.6281 12.4776L22.8664 12.3196ZM35.0229 12.9474L38.2489 15.5403L37.1631 19.5344C37.0412 19.9828 37.2054 20.4492 37.5816 20.7229C37.9577 20.9959 38.4519 21.0078 38.841 20.7534L42.304 18.4865L45.7671 20.7535C45.9538 20.8757 46.1647 20.9364 46.3751 20.9364C46.6032 20.9364 46.8309 20.865 47.0263 20.7229C47.4026 20.4497 47.5668 19.9832 47.4448 19.5344L46.359 15.5404L49.5849 12.9476C49.9474 12.6564 50.0888 12.1825 49.945 11.7401C49.8014 11.2978 49.4084 10.9975 48.9442 10.975L44.8101 10.7734L43.341 6.9041C43.1761 6.46943 42.769 6.18848 42.304 6.18848C41.839 6.18848 41.4318 6.46934 41.2669 6.904L39.7979 10.7734L35.6641 10.9749C35.1994 10.9974 34.8065 11.2978 34.6628 11.7401C34.5191 12.1824 34.6605 12.6563 35.0229 12.9474ZM40.1701 12.3196C40.6109 12.2981 40.9968 12.0178 41.1532 11.6054L42.3039 8.57461L43.4545 11.6053C43.611 12.0178 43.997 12.2981 44.4375 12.3195L47.6755 12.4774L45.1488 14.5082C44.8048 14.7846 44.6573 15.2383 44.7732 15.6639L45.6236 18.7922L42.9111 17.0165C42.7266 16.8958 42.5151 16.8355 42.3037 16.8355C42.0922 16.8355 41.8807 16.8959 41.6962 17.0166L38.9839 18.7922L39.8344 15.6641C39.9501 15.2386 39.8028 14.785 39.4589 14.5084L36.932 12.4774L40.1701 12.3196ZM0.415044 12.9474L3.64112 15.5403L2.55528 19.5344C2.4334 19.9828 2.59756 20.4492 2.97383 20.7229C3.3502 20.9959 3.84424 21.0079 4.23321 20.7534L7.6962 18.4865L11.1593 20.7535C11.346 20.8757 11.5568 20.9364 11.7673 20.9364C11.9954 20.9364 12.2231 20.865 12.4185 20.7229C12.7947 20.4497 12.959 19.9832 12.837 19.5344L11.7512 15.5404L14.9771 12.9476C15.3394 12.6566 15.4809 12.1828 15.3372 11.7396C15.1933 11.2976 14.8003 10.9974 14.3363 10.9749L10.2023 10.7733L8.73321 6.9041C8.56827 6.46943 8.16114 6.18848 7.6962 6.18848C7.23116 6.18848 6.82403 6.46934 6.65909 6.904L5.19004 10.7734L1.05625 10.9749C0.591704 10.9974 0.198735 11.2978 0.0551805 11.7396C-0.0888625 12.1821 0.0524461 12.6562 0.415044 12.9474ZM5.56231 12.3196C6.00303 12.2981 6.38897 12.0178 6.54542 11.6054L7.6961 8.57461L8.84669 11.6053C9.00323 12.0178 9.38917 12.2981 9.82969 12.3195L13.0677 12.4774L10.541 14.5082C10.197 14.7846 10.0495 15.2383 10.1653 15.6639L11.0158 18.7922L8.30333 17.0165C8.11876 16.8958 7.90733 16.8355 7.69591 16.8355C7.48438 16.8355 7.27286 16.8959 7.08839 17.0166L4.37608 18.7922L5.22657 15.6641C5.34229 15.2386 5.19502 14.785 4.85108 14.5084L2.32422 12.4774L5.56231 12.3196ZM49.8771 41.4972C49.3274 39.722 48.2015 38.128 46.7066 37.0087C45.991 36.4729 45.2117 36.0555 44.3897 35.76C45.5294 34.8654 46.2638 33.4768 46.2638 31.9188C46.2638 29.2269 44.0736 27.0368 41.3817 27.0368C38.6898 27.0368 36.4996 29.2269 36.4996 31.9188C36.4996 33.4749 37.2322 34.8622 38.3697 35.7568C36.8452 36.301 35.4946 37.257 34.4604 38.5453C33.977 37.869 33.4193 37.2409 32.7925 36.674C31.5294 35.5317 30.0471 34.6929 28.4507 34.1971C30.1436 33.0748 31.2627 31.1532 31.2627 28.9744C31.2627 25.5213 28.4532 22.7119 25.0001 22.7119C21.547 22.7119 18.7375 25.5213 18.7375 28.9744C18.7375 31.1532 19.8566 33.0748 21.5494 34.1971C19.9529 34.6928 18.4706 35.5317 17.2075 36.674C16.5807 37.2409 16.0231 37.869 15.5398 38.5452C14.5056 37.2568 13.155 36.3008 11.6304 35.7565C12.7678 34.8619 13.5005 33.4746 13.5005 31.9186C13.5005 29.2266 11.3104 27.0365 8.61846 27.0365C5.92647 27.0365 3.73633 29.2266 3.73633 31.9186C3.73633 33.4764 4.47071 34.8651 5.61036 35.7597C4.78829 36.0552 4.00899 36.4726 3.29327 37.0084C1.79844 38.1276 0.672563 39.7217 0.122856 41.4968C-0.131148 42.3167 0.00957507 43.1488 0.519048 43.84C1.02842 44.5311 1.78174 44.9115 2.64014 44.9115H13.4402V46.3215C13.4402 48.3498 15.0903 49.9999 17.1187 49.9999H32.8814C34.9096 49.9999 36.5598 48.3498 36.5599 46.3215V44.9119H47.3599C48.2184 44.9119 48.9717 44.5313 49.481 43.8404C49.9903 43.1492 50.1311 42.317 49.8771 41.4972ZM41.3817 28.5993C43.2121 28.5993 44.7013 30.0885 44.7013 31.9188C44.7013 33.7493 43.2121 35.2385 41.3817 35.2385C39.5513 35.2385 38.0621 33.7493 38.0621 31.9188C38.0621 30.0885 39.5513 28.5993 41.3817 28.5993ZM20.3 28.9744C20.3 26.3828 22.4085 24.2744 25.0001 24.2744C27.5917 24.2744 29.7002 26.3828 29.7002 28.9744C29.7002 31.5652 27.5931 33.673 25.0026 33.6744H25H24.9975C22.407 33.673 20.3 31.5651 20.3 28.9744ZM8.61846 28.5989C10.4488 28.5989 11.938 30.0881 11.938 31.9185C11.938 33.7489 10.4488 35.2381 8.61846 35.2381C6.78799 35.2381 5.29883 33.7489 5.29883 31.9185C5.29883 30.0881 6.78799 28.5989 8.61846 28.5989ZM13.5417 43.3489H2.64024C2.28067 43.3489 1.99024 43.2022 1.77686 42.9128C1.56338 42.6233 1.50918 42.3024 1.61553 41.959C2.571 38.8735 5.38536 36.8006 8.61846 36.8006C11.0641 36.8006 13.2919 37.9822 14.6621 39.9825C14.1204 41.0349 13.741 42.1691 13.5417 43.3489ZM34.9974 46.3214C34.9973 47.4881 34.0481 48.4373 32.8814 48.4373H17.1187C15.952 48.4373 15.0027 47.4881 15.0027 46.3214V44.1727C15.5684 39.0762 19.8578 35.2382 24.9975 35.2369L25.0001 35.237L25.0026 35.2369C30.1422 35.2383 34.4316 39.0762 34.9974 44.1727V46.3214ZM48.2233 42.9133C48.0099 43.2026 47.7195 43.3493 47.3599 43.3493H36.4585C36.2591 42.1694 35.8797 41.0352 35.3381 39.9827C36.7084 37.9825 38.9361 36.801 41.3816 36.801C44.6148 36.801 47.4291 38.874 48.3846 41.9595C48.4909 42.3027 48.4366 42.6236 48.2233 42.9133Z" fill="#171717"/>
<rect x="24" width="2" height="5" rx="1" fill="#E30012"/>
<rect x="33.5283" y="3" width="2" height="7" rx="1" transform="rotate(49 33.5283 3)" fill="#E30012"/>
<rect x="15" y="4.50928" width="2" height="7" rx="1" transform="rotate(-49 15 4.50928)" fill="#E30012"/>
</g>
<defs>
<clipPath id="clip0_130_788">
<rect width="50" height="50" fill="white"/>
</clipPath>
</defs>
</svg>
