<svg width="50" height="50" viewBox="0 0 50 50" fill="none" xmlns="http://www.w3.org/2000/svg">
<g clip-path="url(#clip0_130_819)">
<path d="M48.4375 44.531H45.3125V41.3279C47.5258 40.892 49.2188 38.6459 49.2188 35.9373C49.2188 32.9216 47.1164 30.4685 44.5312 30.4685C43.9419 30.4771 43.3606 30.6063 42.8232 30.8482C42.2857 31.09 41.8035 31.4394 41.4062 31.8748V10.9373H42.1875C42.3947 10.9373 42.5934 10.855 42.7399 10.7085C42.8864 10.5619 42.9688 10.3632 42.9688 10.156V7.03102C42.9688 6.82382 42.8864 6.62511 42.7399 6.4786C42.5934 6.33208 42.3947 6.24977 42.1875 6.24977H31.85C31.4975 4.69653 30.6275 3.30921 29.3829 2.3154C28.1382 1.32158 26.5927 0.780273 25 0.780273C23.4073 0.780273 21.8618 1.32158 20.6171 2.3154C19.3725 3.30921 18.5025 4.69653 18.15 6.24977H7.8125C7.6053 6.24977 7.40659 6.33208 7.26007 6.4786C7.11356 6.62511 7.03125 6.82382 7.03125 7.03102V10.156C7.03125 10.3632 7.11356 10.5619 7.26007 10.7085C7.40659 10.855 7.6053 10.9373 7.8125 10.9373H8.59375V31.8748C8.19649 31.4394 7.71427 31.09 7.17681 30.8482C6.63935 30.6063 6.05805 30.4771 5.46875 30.4685C2.88359 30.4685 0.78125 32.9216 0.78125 35.9373C0.78125 38.642 2.47422 40.8881 4.6875 41.3279V44.531H1.5625C1.3553 44.531 1.15659 44.6133 1.01007 44.7598C0.86356 44.9064 0.78125 45.1051 0.78125 45.3123V48.4373C0.78125 48.6445 0.86356 48.8432 1.01007 48.9897C1.15659 49.1362 1.3553 49.2185 1.5625 49.2185H48.4375C48.6447 49.2185 48.8434 49.1362 48.9899 48.9897C49.1364 48.8432 49.2188 48.6445 49.2188 48.4373V45.3123C49.2188 45.1051 49.1364 44.9064 48.9899 44.7598C48.8434 44.6133 48.6447 44.531 48.4375 44.531ZM41.4062 44.531V42.8631C42.3094 42.6298 43.0959 42.074 43.6172 41.3006C43.6609 41.3107 43.7062 41.3162 43.75 41.3248V44.531H41.4062ZM18.8086 36.7185L25 32.2154L31.1914 36.7185H18.8086ZM21.0938 38.281V44.531H19.5312V38.281H21.0938ZM22.6562 38.281H27.3438V44.531H22.6562V38.281ZM28.9062 38.281H30.4688V44.531H28.9062V38.281ZM32.0312 38.281H33.5938C33.7587 38.2811 33.9195 38.2288 34.053 38.1319C34.1865 38.0349 34.2859 37.8982 34.3369 37.7413C34.3879 37.5844 34.3879 37.4153 34.3369 37.2584C34.286 37.1015 34.1866 36.9647 34.0531 36.8677L25.4594 30.6177C25.3259 30.5207 25.1651 30.4684 25 30.4684C24.8349 30.4684 24.6741 30.5207 24.5406 30.6177L15.9469 36.8677C15.8134 36.9647 15.714 37.1015 15.6631 37.2584C15.6121 37.4153 15.6121 37.5844 15.6631 37.7413C15.7141 37.8982 15.8135 38.0349 15.947 38.1319C16.0805 38.2288 16.2413 38.2811 16.4062 38.281H17.9688V44.531H10.1562V42.874C11.9367 42.4381 13.2812 40.5451 13.2812 38.281C13.2812 36.017 11.9367 34.124 10.1562 33.6881V28.906H39.8438V33.6881C38.0633 34.124 36.7188 36.017 36.7188 38.281C36.7188 40.5451 38.0633 42.4381 39.8438 42.874V44.531H32.0312V38.281ZM10.1266 35.3357C10.6401 35.6294 11.0613 36.0609 11.3427 36.5813C11.624 37.1017 11.7543 37.6905 11.7188 38.281C11.7188 40.0045 10.6672 41.406 9.375 41.406C9.08026 41.3964 8.7911 41.3231 8.52734 41.1912C8.26357 41.0593 8.03145 40.872 7.84687 40.642C8.58062 40.1002 9.17342 39.39 9.57532 38.5713C9.97722 37.7525 10.1765 36.8491 10.1562 35.9373C10.1562 35.7341 10.1453 35.5334 10.1266 35.3357ZM10.1562 17.9685H16.4062V24.2185H10.1562V17.9685ZM39.8438 24.2185H33.5938V17.9685H39.8438V24.2185ZM32.0312 24.2185H25.7812V17.9685H32.0312V24.2185ZM24.2188 24.2185H17.9688V17.9685H24.2188V24.2185ZM10.1562 25.781H39.8438V27.3435H10.1562V25.781ZM40.625 41.406C39.3328 41.406 38.2812 40.0045 38.2812 38.281C38.2457 37.6905 38.376 37.1017 38.6573 36.5813C38.9387 36.0609 39.3599 35.6294 39.8734 35.3357C39.8547 35.5334 39.8438 35.7341 39.8438 35.9373C39.8235 36.8491 40.0228 37.7525 40.4247 38.5713C40.8266 39.39 41.4194 40.1002 42.1531 40.642C41.9686 40.872 41.7364 41.0593 41.4727 41.1912C41.2089 41.3231 40.9197 41.3964 40.625 41.406ZM44.5312 32.031C46.2547 32.031 47.6562 33.7834 47.6562 35.9373C47.6562 38.0912 46.2547 39.8435 44.5312 39.8435C42.8078 39.8435 41.4062 38.0912 41.4062 35.9373C41.4062 33.7834 42.8078 32.031 44.5312 32.031ZM41.4062 7.81227V9.37477H31.85C31.9689 8.86239 32.0297 8.33826 32.0312 7.81227H41.4062ZM25 2.34352C26.0816 2.34352 27.1389 2.66426 28.0383 3.26517C28.9376 3.86609 29.6385 4.72019 30.0525 5.71947C30.4664 6.71876 30.5747 7.81834 30.3637 8.87917C30.1527 9.94001 29.6318 10.9144 28.867 11.6793C28.1022 12.4441 27.1277 12.9649 26.0669 13.1759C25.0061 13.387 23.9065 13.2787 22.9072 12.8647C21.9079 12.4508 21.0538 11.7499 20.4529 10.8505C19.852 9.95122 19.5312 8.89389 19.5312 7.81227C19.5329 6.36238 20.1096 4.97234 21.1348 3.94711C22.1601 2.92188 23.5501 2.34518 25 2.34352ZM8.59375 7.81227H17.9688C17.9703 8.33826 18.0311 8.86239 18.15 9.37477H8.59375V7.81227ZM18.7109 10.9373C19.2907 12.1101 20.1869 13.0973 21.2982 13.7877C22.4095 14.478 23.6917 14.8438 25 14.8438C26.3083 14.8438 27.5905 14.478 28.7018 13.7877C29.8131 13.0973 30.7093 12.1101 31.2891 10.9373H39.8438V16.406H10.1562V10.9373H18.7109ZM2.34375 35.9373C2.34375 33.7834 3.74531 32.031 5.46875 32.031C7.19219 32.031 8.59375 33.7834 8.59375 35.9373C8.59375 38.0912 7.19219 39.8435 5.46875 39.8435C3.74531 39.8435 2.34375 38.0912 2.34375 35.9373ZM6.25 41.3279C6.29375 41.3193 6.33906 41.3138 6.38281 41.3037C6.90414 42.0771 7.69062 42.633 8.59375 42.8662V44.531H6.25V41.3279ZM47.6562 47.656H2.34375V46.0935H47.6562V47.656Z" fill="#171717"/>
<path d="M25 10.1562C24.7928 10.1562 24.5941 10.0739 24.4476 9.92743C24.3011 9.78091 24.2188 9.5822 24.2188 9.375H22.6562C22.6583 9.85802 22.8094 10.3286 23.0891 10.7224C23.3688 11.1162 23.7634 11.414 24.2188 11.575V12.5H25.7812V11.575C26.3021 11.3915 26.7412 11.0297 27.0208 10.5535C27.3004 10.0773 27.4025 9.51752 27.3089 8.9733C27.2153 8.42908 26.9322 7.93553 26.5096 7.58008C26.087 7.22462 25.5522 7.0302 25 7.03125C24.8455 7.03125 24.6944 6.98543 24.566 6.89959C24.4375 6.81374 24.3374 6.69173 24.2782 6.54897C24.2191 6.40622 24.2036 6.24913 24.2338 6.09759C24.2639 5.94604 24.3383 5.80683 24.4476 5.69757C24.5568 5.58831 24.696 5.51391 24.8476 5.48376C24.9991 5.45362 25.1562 5.46909 25.299 5.52822C25.4417 5.58735 25.5637 5.68748 25.6496 5.81596C25.7354 5.94444 25.7812 6.09548 25.7812 6.25H27.3438C27.3417 5.76698 27.1906 5.29638 26.9109 4.90258C26.6312 4.50877 26.2366 4.211 25.7812 4.05V3.125H24.2188V4.05C23.6979 4.23345 23.2588 4.59532 22.9792 5.07151C22.6996 5.5477 22.5975 6.10748 22.6911 6.6517C22.7847 7.19592 23.0678 7.68947 23.4904 8.04492C23.913 8.40038 24.4478 8.5948 25 8.59375C25.2072 8.59375 25.4059 8.67606 25.5524 8.82257C25.6989 8.96909 25.7812 9.1678 25.7812 9.375C25.7812 9.5822 25.6989 9.78091 25.5524 9.92743C25.4059 10.0739 25.2072 10.1562 25 10.1562Z" fill="#E30012"/>
<path d="M25.7812 34.375H24.2188V35.9375H25.7812V34.375Z" fill="#E30012"/>
</g>
<defs>
<clipPath id="clip0_130_819">
<rect width="50" height="50" fill="white"/>
</clipPath>
</defs>
</svg>
