<svg width="50" height="50" viewBox="0 0 50 50" fill="none" xmlns="http://www.w3.org/2000/svg">
<g clip-path="url(#clip0_130_790)">
<path d="M17.9688 1.5625V7.8125H12.5C12.0688 7.8125 11.7188 8.1625 11.7188 8.59375V20.3125H10.1562V21.875H39.8438V20.3125H38.2812V8.59375C38.2812 8.1625 37.9312 7.8125 37.5 7.8125H32.0312V1.5625C32.0312 1.13125 31.6812 0.78125 31.25 0.78125H18.75C18.3188 0.78125 17.9688 1.13125 17.9688 1.5625ZM17.9688 20.3125H13.2812V9.375H17.9688V20.3125ZM32.0312 9.375H36.7188V20.3125H32.0312V9.375ZM26.5625 20.3125H23.4375V17.9688H26.5625V20.3125ZM19.5312 2.34375H30.4688V20.3125H28.125V17.9688H28.9062V16.4062H21.0938V17.9688H21.875V20.3125H19.5312V2.34375Z" fill="#171717"/>
<path d="M21.0938 7.03125H22.6562V8.59375H21.0938V7.03125Z" fill="#171717"/>
<path d="M27.3438 7.03125H28.9062V8.59375H27.3438V7.03125Z" fill="#171717"/>
<path d="M24.2188 7.03125H25.7812V8.59375H24.2188V7.03125Z" fill="#171717"/>
<path d="M21.0938 3.90625H22.6562V5.46875H21.0938V3.90625Z" fill="#171717"/>
<path d="M27.3438 3.90625H28.9062V5.46875H27.3438V3.90625Z" fill="#171717"/>
<path d="M24.2188 3.90625H25.7812V5.46875H24.2188V3.90625Z" fill="#171717"/>
<path d="M24.2188 10.1562H25.7812V11.7188H24.2188V10.1562Z" fill="#171717"/>
<path d="M24.2188 13.2812H25.7812V14.8438H24.2188V13.2812Z" fill="#171717"/>
<path d="M21.0938 10.1562H22.6562V11.7188H21.0938V10.1562Z" fill="#171717"/>
<path d="M27.3438 10.1562H28.9062V11.7188H27.3438V10.1562Z" fill="#171717"/>
<path d="M21.0938 13.2812H22.6562V14.8438H21.0938V13.2812Z" fill="#171717"/>
<path d="M27.3438 13.2812H28.9062V14.8438H27.3438V13.2812Z" fill="#171717"/>
<path d="M33.5938 10.9375H35.1562V12.5H33.5938V10.9375Z" fill="#171717"/>
<path d="M33.5938 14.0625H35.1562V15.625H33.5938V14.0625Z" fill="#171717"/>
<path d="M33.5938 17.1875H35.1562V18.75H33.5938V17.1875Z" fill="#171717"/>
<path d="M14.8438 10.9375H16.4062V12.5H14.8438V10.9375Z" fill="#171717"/>
<path d="M14.8438 14.0625H16.4062V15.625H14.8438V14.0625Z" fill="#171717"/>
<path d="M14.8438 17.1875H16.4062V18.75H14.8438V17.1875Z" fill="#171717"/>
<path d="M0.78125 35.9375V39.0625C0.78125 39.4938 1.13125 39.8438 1.5625 39.8438H2.34375V48.4375C2.34375 48.8687 2.69375 49.2188 3.125 49.2188H15.625C16.0562 49.2188 16.4062 48.8687 16.4062 48.4375V39.8438H17.1875C17.6187 39.8438 17.9688 39.4938 17.9688 39.0625V35.9375C17.9688 35.5063 17.6187 35.1562 17.1875 35.1562H1.5625C1.13125 35.1562 0.78125 35.5063 0.78125 35.9375ZM10.1562 47.6562H8.59375V46.0938H10.1562V47.6562ZM14.8438 47.6562H11.7188V45.3125C11.7188 44.8813 11.3687 44.5312 10.9375 44.5312H7.8125C7.38125 44.5312 7.03125 44.8813 7.03125 45.3125V47.6562H3.90625V39.8438H14.8438V47.6562ZM2.34375 36.7188H16.4062V38.2812H2.34375V36.7188Z" fill="#171717"/>
<path d="M11.7188 41.4062H13.2812V42.9688H11.7188V41.4062Z" fill="#171717"/>
<path d="M8.59375 41.4062H10.1562V42.9688H8.59375V41.4062Z" fill="#171717"/>
<path d="M5.46875 41.4062H7.03125V42.9688H5.46875V41.4062Z" fill="#171717"/>
<path d="M48.4375 35.1562H32.8125C32.3813 35.1562 32.0312 35.5063 32.0312 35.9375V39.0625C32.0312 39.4938 32.3813 39.8438 32.8125 39.8438H33.5938V48.4375C33.5938 48.8687 33.9438 49.2188 34.375 49.2188H46.875C47.3062 49.2188 47.6562 48.8687 47.6562 48.4375V39.8438H48.4375C48.8687 39.8438 49.2188 39.4938 49.2188 39.0625V35.9375C49.2188 35.5063 48.8687 35.1562 48.4375 35.1562ZM41.4062 47.6562H39.8438V46.0938H41.4062V47.6562ZM46.0938 47.6562H42.9688V45.3125C42.9688 44.8813 42.6187 44.5312 42.1875 44.5312H39.0625C38.6312 44.5312 38.2812 44.8813 38.2812 45.3125V47.6562H35.1562V39.8438H46.0938V47.6562ZM47.6562 38.2812H33.5938V36.7188H47.6562V38.2812Z" fill="#171717"/>
<path d="M42.9688 41.4062H44.5312V42.9688H42.9688V41.4062Z" fill="#171717"/>
<path d="M39.8438 41.4062H41.4062V42.9688H39.8438V41.4062Z" fill="#171717"/>
<path d="M36.7188 41.4062H38.2812V42.9688H36.7188V41.4062Z" fill="#171717"/>
<path d="M26.5625 24.2188H23.4375C23.0063 24.2188 22.6563 24.5688 22.6563 25V29.6875H21.0938C20.7906 29.6875 20.5149 29.8633 20.3859 30.1375C20.257 30.4125 20.2992 30.7367 20.4938 30.9687L24.4 35.6562C24.5484 35.8344 24.768 35.9375 25 35.9375C25.232 35.9375 25.4516 35.8344 25.6 35.6562L29.5063 30.9687C29.7008 30.7359 29.7422 30.4117 29.6141 30.1375C29.4852 29.8633 29.2094 29.6875 28.9063 29.6875H27.3438V25C27.3438 24.5688 26.9938 24.2188 26.5625 24.2188ZM25 33.9359L22.7617 31.25H23.4375C23.8688 31.25 24.2188 30.9 24.2188 30.4688V25.7812H25.7813V30.4688C25.7813 30.9 26.1313 31.25 26.5625 31.25H27.2383L25 33.9359Z" fill="#E30012"/>
</g>
<defs>
<clipPath id="clip0_130_790">
<rect width="50" height="50" fill="white"/>
</clipPath>
</defs>
</svg>
