<svg width="50" height="50" viewBox="0 0 50 50" fill="none" xmlns="http://www.w3.org/2000/svg">
<path d="M49.9522 49.0077L42.628 29.7138C42.5672 29.5535 42.452 29.4197 42.3028 29.3356L34.5015 24.9405L36.7791 21.3292C38.1769 19.111 38.9159 16.5477 38.9159 13.9162C38.9159 6.24291 32.6732 0.000244141 24.9999 0.000244141C17.3266 0.000244141 11.0839 6.24291 11.0839 13.9162C11.0839 16.5484 11.8232 19.1118 13.2218 21.3294C13.2592 21.3889 15.4989 24.9407 15.4989 24.9407L7.69722 29.3356C7.54791 29.4197 7.43277 29.5535 7.37193 29.7138L0.0477256 49.0077C-0.0617469 49.2959 0.0211631 49.6219 0.254854 49.823C0.488838 50.0242 0.82331 50.0573 1.09196 49.9058L12.8662 43.2724L24.6404 49.9058C24.8635 50.0315 25.1363 50.0315 25.3594 49.9058L37.1336 43.2724L48.9078 49.9058C49.0201 49.9691 49.144 50.0001 49.2673 50.0001C49.4387 50.0001 49.6089 49.9401 49.745 49.8231C49.9789 49.6219 50.0617 49.2959 49.9522 49.0077ZM25.7324 37.9602C26.1906 37.7985 26.5879 37.487 26.8575 37.0601C26.8947 37.0015 33.1299 27.1154 33.1299 27.1154L36.3056 42.0576L25.7324 48.0142V37.9602ZM14.4609 20.5479C13.21 18.5645 12.5489 16.2713 12.5489 13.9161C12.5489 7.05052 18.1344 1.46499 25 1.46499C31.8656 1.46499 37.4512 7.05052 37.4512 13.9161C37.4512 16.2708 36.7902 18.5642 35.5401 20.5479C35.4424 20.7028 25.7918 36.0067 25.6235 36.2711C25.6219 36.2733 25.6205 36.2757 25.6191 36.2779C25.4832 36.4927 25.2519 36.6212 25 36.6212C24.748 36.6212 24.5155 36.4922 24.3795 36.2783C24.2817 36.1231 14.6119 20.789 14.4642 20.5532C14.4631 20.5515 14.462 20.5497 14.4609 20.5479ZM8.64722 30.4816L15.4749 26.6352L14.2855 32.2313C14.2014 32.627 14.4539 33.0159 14.8496 33.1001C14.9009 33.111 14.9522 33.1163 15.0026 33.1163C15.341 33.1163 15.6451 32.8803 15.7182 32.536L16.8703 27.1159L23.1418 37.0621C23.4124 37.4878 23.81 37.7986 24.2674 37.9601V48.0144L13.6945 42.0577L15.1092 35.4015C15.1933 35.0058 14.9408 34.617 14.5452 34.5328C14.1491 34.4482 13.7605 34.7013 13.6764 35.0969L12.2185 41.9558L2.13493 47.6369L8.64722 30.4816ZM37.7814 41.9559L34.5253 26.6352L41.3527 30.4816L47.8651 47.6369L37.7814 41.9559Z" fill="black"/>
<path d="M33.0566 13.916C33.0566 9.47363 29.4424 5.85938 25 5.85938C20.5576 5.85938 16.9434 9.47363 16.9434 13.916C16.9434 18.3584 20.5576 21.9727 25 21.9727C29.4424 21.9727 33.0566 18.3584 33.0566 13.916ZM18.4082 13.916C18.4082 10.2812 21.3652 7.32422 25 7.32422C28.6348 7.32422 31.5918 10.2812 31.5918 13.916C31.5918 17.5508 28.6348 20.5078 25 20.5078C21.3652 20.5078 18.4082 17.5508 18.4082 13.916Z" fill="black"/>
<path d="M30.127 13.916C30.127 11.0891 27.827 8.78906 25 8.78906C22.173 8.78906 19.873 11.0891 19.873 13.916C19.873 16.743 22.173 19.043 25 19.043C27.827 19.043 30.127 16.743 30.127 13.916ZM21.3379 13.916C21.3379 11.8967 22.9807 10.2539 25 10.2539C27.0193 10.2539 28.6621 11.8967 28.6621 13.916C28.6621 15.9354 27.0193 17.5781 25 17.5781C22.9807 17.5781 21.3379 15.9354 21.3379 13.916Z" fill="black"/>
</svg>
