<svg width="50" height="50" viewBox="0 0 50 50" fill="none" xmlns="http://www.w3.org/2000/svg">
<path d="M48.4375 44.5313H45.3125V41.3281C47.5258 40.8922 49.2188 38.6461 49.2188 35.9375C49.2188 32.9219 47.1164 30.4688 44.5312 30.4688C43.9419 30.4773 43.3606 30.6066 42.8232 30.8484C42.2857 31.0903 41.8035 31.4396 41.4062 31.875V10.9375H42.1875C42.3947 10.9375 42.5934 10.8552 42.7399 10.7087C42.8864 10.5622 42.9688 10.3635 42.9688 10.1563V7.03125C42.9688 6.82405 42.8864 6.62534 42.7399 6.47883C42.5934 6.33231 42.3947 6.25 42.1875 6.25H31.85C31.4975 4.69676 30.6275 3.30944 29.3829 2.31563C28.1382 1.32181 26.5927 0.780502 25 0.780502C23.4073 0.780502 21.8618 1.32181 20.6171 2.31563C19.3725 3.30944 18.5025 4.69676 18.15 6.25H7.8125C7.6053 6.25 7.40659 6.33231 7.26007 6.47883C7.11356 6.62534 7.03125 6.82405 7.03125 7.03125V10.1563C7.03125 10.3635 7.11356 10.5622 7.26007 10.7087C7.40659 10.8552 7.6053 10.9375 7.8125 10.9375H8.59375V31.875C8.19649 31.4396 7.71427 31.0903 7.17681 30.8484C6.63935 30.6066 6.05805 30.4773 5.46875 30.4688C2.88359 30.4688 0.78125 32.9219 0.78125 35.9375C0.78125 38.6422 2.47422 40.8883 4.6875 41.3281V44.5313H1.5625C1.3553 44.5313 1.15659 44.6136 1.01007 44.7601C0.86356 44.9066 0.78125 45.1053 0.78125 45.3125V48.4375C0.78125 48.6447 0.86356 48.8434 1.01007 48.9899C1.15659 49.1364 1.3553 49.2188 1.5625 49.2188H48.4375C48.6447 49.2188 48.8434 49.1364 48.9899 48.9899C49.1364 48.8434 49.2188 48.6447 49.2188 48.4375V45.3125C49.2188 45.1053 49.1364 44.9066 48.9899 44.7601C48.8434 44.6136 48.6447 44.5313 48.4375 44.5313ZM41.4062 44.5313V42.8633C42.3094 42.6301 43.0959 42.0743 43.6172 41.3008C43.6609 41.3109 43.7062 41.3164 43.75 41.325V44.5313H41.4062ZM18.8086 36.7188L25 32.2156L31.1914 36.7188H18.8086ZM21.0938 38.2813V44.5313H19.5312V38.2813H21.0938ZM22.6562 38.2813H27.3438V44.5313H22.6562V38.2813ZM28.9062 38.2813H30.4688V44.5313H28.9062V38.2813ZM32.0312 38.2813H33.5938C33.7587 38.2813 33.9195 38.2291 34.053 38.1321C34.1865 38.0352 34.2859 37.8984 34.3369 37.7415C34.3879 37.5846 34.3879 37.4156 34.3369 37.2586C34.286 37.1017 34.1866 36.965 34.0531 36.868L25.4594 30.618C25.3259 30.5209 25.1651 30.4686 25 30.4686C24.8349 30.4686 24.6741 30.5209 24.5406 30.618L15.9469 36.868C15.8134 36.965 15.714 37.1017 15.6631 37.2586C15.6121 37.4156 15.6121 37.5846 15.6631 37.7415C15.7141 37.8984 15.8135 38.0352 15.947 38.1321C16.0805 38.2291 16.2413 38.2813 16.4062 38.2813H17.9688V44.5313H10.1562V42.8742C11.9367 42.4383 13.2812 40.5453 13.2812 38.2813C13.2812 36.0172 11.9367 34.1242 10.1562 33.6883V28.9063H39.8438V33.6883C38.0633 34.1242 36.7188 36.0172 36.7188 38.2813C36.7188 40.5453 38.0633 42.4383 39.8438 42.8742V44.5313H32.0312V38.2813ZM10.1266 35.3359C10.6401 35.6297 11.0613 36.0611 11.3427 36.5815C11.624 37.102 11.7543 37.6907 11.7188 38.2813C11.7188 40.0047 10.6672 41.4063 9.375 41.4063C9.08026 41.3966 8.7911 41.3233 8.52734 41.1914C8.26357 41.0595 8.03145 40.8722 7.84687 40.6422C8.58062 40.1004 9.17342 39.3902 9.57532 38.5715C9.97722 37.7527 10.1765 36.8494 10.1562 35.9375C10.1562 35.7344 10.1453 35.5336 10.1266 35.3359ZM10.1562 17.9688H16.4062V24.2188H10.1562V17.9688ZM39.8438 24.2188H33.5938V17.9688H39.8438V24.2188ZM32.0312 24.2188H25.7812V17.9688H32.0312V24.2188ZM24.2188 24.2188H17.9688V17.9688H24.2188V24.2188ZM10.1562 25.7813H39.8438V27.3438H10.1562V25.7813ZM40.625 41.4063C39.3328 41.4063 38.2812 40.0047 38.2812 38.2813C38.2457 37.6907 38.376 37.102 38.6573 36.5815C38.9387 36.0611 39.3599 35.6297 39.8734 35.3359C39.8547 35.5336 39.8438 35.7344 39.8438 35.9375C39.8235 36.8494 40.0228 37.7527 40.4247 38.5715C40.8266 39.3902 41.4194 40.1004 42.1531 40.6422C41.9686 40.8722 41.7364 41.0595 41.4727 41.1914C41.2089 41.3233 40.9197 41.3966 40.625 41.4063ZM44.5312 32.0313C46.2547 32.0313 47.6562 33.7836 47.6562 35.9375C47.6562 38.0914 46.2547 39.8438 44.5312 39.8438C42.8078 39.8438 41.4062 38.0914 41.4062 35.9375C41.4062 33.7836 42.8078 32.0313 44.5312 32.0313ZM41.4062 7.8125V9.375H31.85C31.9689 8.86262 32.0297 8.33849 32.0312 7.8125H41.4062ZM25 2.34375C26.0816 2.34375 27.1389 2.66449 28.0383 3.2654C28.9376 3.86632 29.6385 4.72042 30.0525 5.7197C30.4664 6.71899 30.5747 7.81857 30.3637 8.8794C30.1527 9.94024 29.6318 10.9147 28.867 11.6795C28.1022 12.4443 27.1277 12.9652 26.0669 13.1762C25.0061 13.3872 23.9065 13.2789 22.9072 12.865C21.9079 12.4511 21.0538 11.7501 20.4529 10.8508C19.852 9.95145 19.5312 8.89412 19.5312 7.8125C19.5329 6.36261 20.1096 4.97257 21.1348 3.94734C22.1601 2.92211 23.5501 2.34541 25 2.34375ZM8.59375 7.8125H17.9688C17.9703 8.33849 18.0311 8.86262 18.15 9.375H8.59375V7.8125ZM18.7109 10.9375C19.2907 12.1103 20.1869 13.0976 21.2982 13.7879C22.4095 14.4782 23.6917 14.844 25 14.844C26.3083 14.844 27.5905 14.4782 28.7018 13.7879C29.8131 13.0976 30.7093 12.1103 31.2891 10.9375H39.8438V16.4063H10.1562V10.9375H18.7109ZM2.34375 35.9375C2.34375 33.7836 3.74531 32.0313 5.46875 32.0313C7.19219 32.0313 8.59375 33.7836 8.59375 35.9375C8.59375 38.0914 7.19219 39.8438 5.46875 39.8438C3.74531 39.8438 2.34375 38.0914 2.34375 35.9375ZM6.25 41.3281C6.29375 41.3195 6.33906 41.3141 6.38281 41.3039C6.90414 42.0774 7.69062 42.6332 8.59375 42.8664V44.5313H6.25V41.3281ZM47.6562 47.6563H2.34375V46.0938H47.6562V47.6563Z" fill="white"/>
</svg>
