<svg width="50" height="50" viewBox="0 0 50 50" fill="none" xmlns="http://www.w3.org/2000/svg">
<path d="M14.7059 6.70605L17.3696 8.84697L16.4731 12.1446C16.3567 12.5727 16.5133 13.0178 16.8722 13.2785C17.0589 13.4142 17.2762 13.4823 17.4939 13.4823C17.6947 13.4823 17.8959 13.4243 18.0739 13.3077L20.9331 11.436L23.7924 13.3077C24.1635 13.5507 24.6353 13.5392 24.9942 13.2784C25.3531 13.0177 25.5097 12.5726 25.3934 12.1445L24.4968 8.84688L27.1605 6.70596C27.5063 6.42803 27.641 5.97588 27.504 5.554C27.367 5.13213 26.9921 4.84551 26.5491 4.82393L23.1357 4.65752L21.9226 1.46279C21.7655 1.04873 21.3772 0.78125 20.9333 0.78125C20.4895 0.78125 20.101 1.04883 19.9438 1.46289L18.7308 4.65771L15.3174 4.82412C14.8743 4.8457 14.4995 5.13223 14.3624 5.5542C14.2253 5.97598 14.3601 6.42812 14.7059 6.70605ZM19.1361 6.20225C19.5566 6.18193 19.9248 5.91445 20.0743 5.5207L20.9331 3.25869L21.7918 5.52051C21.9412 5.91426 22.3095 6.18184 22.7298 6.20215L25.1466 6.31992L23.2609 7.83584C22.9328 8.09941 22.7921 8.53213 22.9025 8.93857L23.5372 11.2734L21.5129 9.94834C21.3368 9.83301 21.135 9.77539 20.9331 9.77539C20.7314 9.77539 20.5295 9.83301 20.3535 9.94834L18.3291 11.2735L18.9639 8.93877C19.0743 8.53252 18.9337 8.09971 18.6057 7.83613L16.7198 6.32031L19.1361 6.20225ZM8.03968 16.3951L10.8989 18.2668C11.2701 18.5098 11.7417 18.4984 12.1006 18.2376C12.4595 17.9769 12.6162 17.5318 12.4998 17.1037L11.6033 13.806L14.2669 11.665C14.6126 11.3871 14.7474 10.935 14.6104 10.5131C14.4733 10.0912 14.0984 9.80469 13.6554 9.78311L10.242 9.6167L9.02913 6.42178C8.872 6.00781 8.48372 5.74023 8.03987 5.74023C7.59603 5.74023 7.20755 6.00781 7.05032 6.42188L5.83724 9.6168L2.42386 9.7832C1.98079 9.80478 1.60599 10.0913 1.46888 10.5133C1.33177 10.9353 1.46663 11.3874 1.81243 11.6652L4.47601 13.8062L3.57952 17.1038C3.46312 17.5318 3.61976 17.9769 3.97864 18.2377C4.16536 18.3733 4.38255 18.4415 4.60032 18.4415C4.8011 18.4415 5.00237 18.3835 5.1803 18.2669L8.03968 16.3951ZM3.8262 11.2791L6.243 11.1612C6.66351 11.1408 7.03167 10.8731 7.18089 10.4798L8.03968 8.21777L8.89857 10.4799C9.04798 10.8733 9.41614 11.1408 9.83646 11.1612L12.2533 11.2791L10.3674 12.7948C10.0393 13.0585 9.89866 13.4913 10.0091 13.8975L10.6439 16.2322L8.61937 14.9069C8.44339 14.7918 8.24163 14.7342 8.03987 14.7342C7.83812 14.7342 7.63626 14.7918 7.46019 14.907L5.43577 16.2322L6.07054 13.8975C6.18099 13.4911 6.04026 13.0582 5.71233 12.7948L3.8262 11.2791ZM27.2559 10.5131C27.1188 10.935 27.2536 11.3872 27.5993 11.6651L30.263 13.8061L29.3665 17.1037C29.2501 17.5317 29.4068 17.9768 29.7657 18.2376C29.9524 18.3732 30.1696 18.4414 30.3873 18.4414C30.5881 18.4414 30.7894 18.3834 30.9674 18.2668L33.8266 16.395L36.6858 18.2667C37.0569 18.5097 37.5285 18.4982 37.8874 18.2376C38.2463 17.977 38.4032 17.5318 38.2868 17.1036L37.3903 13.806L40.0539 11.665C40.3997 11.3871 40.5344 10.935 40.3974 10.5131C40.2603 10.0912 39.8855 9.80469 39.4425 9.78311L36.0291 9.6167L34.8161 6.42197C34.659 6.00781 34.2706 5.74023 33.8267 5.74023C33.3827 5.74023 32.9944 6.00781 32.8372 6.42178L31.6242 9.6167L28.2109 9.78311C27.7679 9.80469 27.393 10.0912 27.2559 10.5131ZM32.0299 11.1613C32.4504 11.1409 32.8186 10.8733 32.9678 10.4799L33.8266 8.21777L34.6854 10.4796C34.8347 10.8732 35.2029 11.1408 35.6234 11.1612L38.0401 11.2791L36.1541 12.7949C35.8261 13.0586 35.6855 13.4914 35.7959 13.8975L36.4307 16.2322L34.4062 14.9069C34.2302 14.7918 34.0285 14.7342 33.8267 14.7342C33.6249 14.7342 33.4231 14.7918 33.2469 14.907L31.2226 16.2322L31.8574 13.8975C31.9678 13.4912 31.8271 13.0584 31.4992 12.7948L29.6132 11.279L32.0299 11.1613ZM39.2894 30.6302C36.3652 30.6302 33.7526 31.9881 32.0476 34.106C30.0672 32.1756 27.6237 30.8031 24.9795 30.1057C27.5923 28.6709 29.3676 25.893 29.3676 22.7076C29.3676 18.0569 25.5839 14.2733 20.9332 14.2733C16.2825 14.2733 12.4989 18.0569 12.4989 22.7076C12.4989 25.8906 14.2716 28.6667 16.8813 30.1023C14.4382 30.7441 12.1671 31.9635 10.2608 33.6875C7.35276 36.3173 5.52249 39.9035 5.10716 43.7854C5.08353 44.0059 5.15472 44.2259 5.30286 44.3907C5.45101 44.5556 5.66224 44.6497 5.88392 44.6497L31.289 44.6496C32.9092 47.3823 35.8886 49.2186 39.2893 49.2186C44.4142 49.2186 48.5835 45.0492 48.5835 39.9243C48.5835 34.7994 44.4143 30.6302 39.2894 30.6302ZM14.0615 22.7076C14.0615 18.9185 17.1442 15.8358 20.9333 15.8358C24.7225 15.8358 27.8052 18.9185 27.8052 22.7076C27.8052 26.4964 24.7232 29.5788 20.9346 29.5794C20.9342 29.5794 20.9337 29.5794 20.9333 29.5794C20.9329 29.5794 20.9325 29.5794 20.9321 29.5794C17.1435 29.5787 14.0615 26.4963 14.0615 22.7076ZM6.77952 43.0873C7.93323 36.2191 13.8705 31.1426 20.9321 31.142H20.9333H20.9345C24.7758 31.1423 28.4693 32.6974 31.1589 35.4259C30.418 36.7597 29.9951 38.2936 29.9951 39.9245C29.9951 41.0345 30.191 42.0996 30.5495 43.0873H6.77952ZM39.2894 47.6562C35.0261 47.6562 31.5576 44.1877 31.5576 39.9244C31.5576 35.6611 35.0261 32.1927 39.2894 32.1927C43.5527 32.1927 47.0211 35.6611 47.0211 39.9244C47.0211 44.1877 43.5527 47.6562 39.2894 47.6562ZM44.6445 35.9352C44.2571 35.55 43.7408 35.3398 43.1964 35.341C42.6508 35.3431 42.1391 35.5576 41.7556 35.9449L38.1687 39.5678L36.8216 38.2207C36.0246 37.4239 34.7281 37.4238 33.931 38.2208C33.1342 39.0177 33.1342 40.3144 33.931 41.1114L36.7287 43.9091C37.1272 44.3075 37.6505 44.5066 38.174 44.5066C38.6973 44.5066 39.2207 44.3074 39.6192 43.909C40.6811 42.8472 41.7521 41.7608 42.7877 40.7103C43.4092 40.0799 44.0308 39.4495 44.6538 38.8206C45.4455 38.0218 45.4412 36.7273 44.6445 35.9352ZM43.544 37.7208C42.92 38.3506 42.2976 38.9819 41.6751 39.6133C40.6413 40.6618 39.5723 41.7462 38.5144 42.8041C38.3268 42.9918 38.0212 42.9918 37.8335 42.8041L35.0359 40.0065C34.8482 39.8187 34.8482 39.5133 35.0359 39.3256C35.1297 39.2317 35.2531 39.1849 35.3763 39.1849C35.4995 39.1849 35.6229 39.2317 35.7167 39.3256L37.6189 41.2278C37.7654 41.3743 37.9641 41.4566 38.1713 41.4566H38.1733C38.3811 41.4562 38.5802 41.3729 38.7265 41.2251L42.8659 37.0443C42.9553 36.954 43.0748 36.904 43.2024 36.9035C43.3317 36.8987 43.4516 36.9524 43.5426 37.0431C43.7296 37.2289 43.7302 37.533 43.544 37.7208Z" fill="black"/>
</svg>
