<svg width="50" height="50" viewBox="0 0 50 50" fill="none" xmlns="http://www.w3.org/2000/svg">
<path d="M42.9451 36.355L41.0916 31.8648C41.0909 31.863 41.0902 31.8611 41.0894 31.8593L38.6354 25.9141C38.6345 25.912 38.6336 25.9098 38.6328 25.9078L36.7836 21.4282C36.6705 21.1543 36.4036 20.9757 36.1073 20.9757H25.8784V14.4071L29.0608 16.4346C29.4511 16.6833 29.8877 16.802 30.3195 16.802C31.0961 16.802 31.8573 16.4178 32.3046 15.7157C32.6419 15.1864 32.7528 14.5575 32.617 13.9449C32.4812 13.3322 32.115 12.809 31.5857 12.4718L26.6567 9.33127C26.5296 8.90822 26.3144 8.52326 26.0327 8.19689V2.34952C26.0327 1.05391 24.9788 0 23.6833 0C22.3878 0 21.3338 1.05391 21.3338 2.34952V8.19689C21.0521 8.52316 20.8369 8.90822 20.7099 9.33127L15.7809 12.4716C15.2516 12.8089 14.8853 13.3319 14.7494 13.9447C14.6136 14.5574 14.7245 15.1864 15.0618 15.7155C15.3991 16.2448 15.9221 16.6111 16.5348 16.7469C16.7054 16.7848 16.8772 16.8034 17.0479 16.8034C17.4899 16.8034 17.9237 16.6779 18.3056 16.4346L21.488 14.4071V16.2928C21.488 16.6969 21.8156 17.0245 22.2197 17.0245C22.6238 17.0245 22.9515 16.6969 22.9515 16.2928V13.4745L23.2346 13.2942C23.3812 13.3155 23.5308 13.327 23.6832 13.327C23.8356 13.327 23.9852 13.3155 24.1318 13.2942L24.415 13.4745V20.9269H22.9516V19.2196C22.9516 18.8155 22.6239 18.4878 22.2198 18.4878C21.8157 18.4878 21.4881 18.8155 21.4881 19.2196V20.9756H11.357C11.0607 20.9756 10.7937 21.1542 10.6807 21.4281L8.83153 25.9077C8.83065 25.9098 8.82977 25.912 8.82889 25.914L6.37488 31.8592C6.3741 31.8611 6.37342 31.863 6.37264 31.8647L4.51922 36.3549C4.42605 36.5806 4.45164 36.838 4.58738 37.0409C4.72322 37.2438 4.95125 37.3658 5.19549 37.3658H13.974C13.9749 37.3658 13.9758 37.3659 13.9768 37.3659C13.9773 37.3659 13.9778 37.3658 13.9784 37.3658H17.8785V42.8817C16.9576 42.9207 16.22 43.6798 16.22 44.6101V45.4146H15.1933C14.4145 45.4146 13.781 46.0482 13.781 46.8269V48.5877C13.781 49.3664 14.4145 50 15.1933 50H32.1736C32.9523 50 33.5859 49.3664 33.5859 48.5877V46.8269C33.5859 46.0482 32.9523 45.4146 32.1736 45.4146H30.9516V44.6101C30.9516 43.7466 30.3158 43.0308 29.4882 42.9011V37.3659H33.4859C33.4865 37.3659 33.4869 37.366 33.4875 37.366C33.4884 37.366 33.4893 37.3659 33.4903 37.3659H42.2688C42.513 37.3659 42.7411 37.244 42.8769 37.041C43.0126 36.8381 43.0382 36.5807 42.9451 36.355ZM17.5194 15.2002C17.3198 15.3275 17.0825 15.3692 16.8517 15.318C16.6205 15.2668 16.4232 15.1286 16.2962 14.929C16.169 14.7295 16.1272 14.4922 16.1784 14.2613C16.2296 14.0301 16.3677 13.8328 16.5673 13.7058L20.6985 11.0737C20.8662 11.661 21.2026 12.1774 21.6522 12.5673L17.5194 15.2002ZM35.6174 22.4391L36.8659 25.4635H31.81L31.153 22.4391H35.6174ZM26.6681 11.0737L30.7993 13.7058C30.999 13.833 31.137 14.0303 31.1882 14.2614C31.2394 14.4924 31.1976 14.7295 31.0704 14.9291C30.8079 15.3412 30.2591 15.4629 29.847 15.2002L25.7144 12.5671C26.164 12.1773 26.5003 11.6609 26.6681 11.0737ZM22.7973 2.34952C22.7973 1.86094 23.1947 1.46348 23.6833 1.46348C24.1719 1.46348 24.5694 1.86094 24.5694 2.34952V7.24767C24.2884 7.16388 23.9911 7.11808 23.6833 7.11808C23.3755 7.11808 23.0782 7.16378 22.7973 7.24767V2.34952ZM23.6833 11.8635C22.7784 11.8635 22.0423 11.1274 22.0423 10.2225C22.0423 9.3176 22.7784 8.58146 23.6833 8.58146C24.5882 8.58146 25.3243 9.3176 25.3243 10.2225C25.3243 11.1274 24.5882 11.8635 23.6833 11.8635ZM24.3662 22.4391H29.6554L30.3124 25.4635H24.3661L24.3662 22.4391ZM21.6345 41.6098H25.732C26.1362 41.6098 26.4638 41.2822 26.4638 40.8781V37.4147H28.0247V42.8781H19.3418V37.4147H20.9027V40.8781C20.9027 41.2822 21.2304 41.6098 21.6345 41.6098ZM25.0004 40.1465H22.3662V37.4147H25.0004V40.1465ZM17.8087 22.4391H22.9027V25.4635H17.1516L17.8087 22.4391ZM22.9028 26.9269V31.4147H15.8587L16.8337 26.9269H22.9028ZM11.8466 22.4391H16.311L15.654 25.4635H10.5981L11.8466 22.4391ZM13.3861 35.9025H6.28914L7.53758 32.8781H14.0433L13.3861 35.9025ZM8.14159 31.4147L9.99403 26.9269H15.3361L14.3611 31.4147H8.14159ZM14.8837 35.9025L15.5407 32.8781H22.9027V35.9025H14.8837ZM17.6833 44.6101C17.6833 44.462 17.8038 44.3416 17.9519 44.3416H29.2196C29.3676 44.3416 29.4881 44.4621 29.4881 44.6101V45.4147H17.6833V44.6101ZM32.1223 46.8781V48.5366H15.2442V46.8781H32.1223ZM24.3662 35.9025V32.8781H27.062C27.4661 32.8781 27.7938 32.5505 27.7938 32.1464C27.7938 31.7423 27.4661 31.4146 27.062 31.4146H24.3662V26.9268H30.6304L31.6054 31.4146H29.9888C29.5847 31.4146 29.2571 31.7423 29.2571 32.1464C29.2571 32.5505 29.5847 32.8781 29.9888 32.8781H31.9234L32.5804 35.9025H24.3662ZM32.128 26.9269H37.4701L39.3225 31.4147H33.103L32.128 26.9269ZM34.0781 35.9025L33.421 32.8781H39.9267L41.1751 35.9025H34.0781Z" fill="black"/>
<path d="M15.0004 5.70743H7.58584C7.23614 5.70743 6.95166 5.42295 6.95166 5.07325C6.95166 4.72354 7.23614 4.43907 7.58584 4.43907C7.71309 4.43907 7.83545 4.47637 7.93975 4.54688C8.27471 4.77315 8.7295 4.68516 8.95577 4.3503C9.18204 4.01543 9.09405 3.56055 8.75919 3.33428C8.41182 3.09961 8.00616 2.97559 7.58584 2.97559C6.4293 2.97559 5.48828 3.9166 5.48828 5.07315C5.48828 6.22969 6.4293 7.17081 7.58584 7.17081H15.0005C15.4046 7.17081 15.7322 6.84317 15.7322 6.43907C15.7322 6.03497 15.4045 5.70743 15.0004 5.70743Z" fill="black"/>
<path d="M11.0005 8.43912H3.58584C3.23614 8.43912 2.95166 8.15464 2.95166 7.80494C2.95166 7.45523 3.23614 7.17075 3.58584 7.17075C3.71309 7.17075 3.83536 7.20806 3.93975 7.27857C4.27471 7.50474 4.7294 7.41685 4.95577 7.08198C5.18204 6.74712 5.09405 6.29224 4.75919 6.06597C4.41182 5.8313 4.00616 5.70728 3.58584 5.70728C2.4293 5.70728 1.48828 6.64829 1.48828 7.80484C1.48828 8.96138 2.4292 9.9024 3.58584 9.9024H11.0005C11.4046 9.9025 11.7322 9.57486 11.7322 9.17076C11.7321 8.76666 11.4045 8.43912 11.0005 8.43912Z" fill="black"/>
<path d="M47.7808 14.2926H40.3661C40.0164 14.2926 39.7319 14.0082 39.7319 13.6585C39.7319 13.3087 40.0164 13.0243 40.3661 13.0243C40.4934 13.0243 40.6157 13.0616 40.72 13.1321C41.055 13.3584 41.5098 13.2704 41.736 12.9355C41.9623 12.6006 41.8743 12.1458 41.5395 11.9195C41.1921 11.6848 40.7864 11.5608 40.3661 11.5608C39.2096 11.5608 38.2686 12.5018 38.2686 13.6584C38.2686 14.8149 39.2096 15.7559 40.3661 15.7559H47.7808C48.1849 15.7559 48.5125 15.4283 48.5125 15.0242C48.5125 14.6201 48.1849 14.2926 47.7808 14.2926Z" fill="black"/>
<path d="M43.7808 17.0246H36.3661C36.0164 17.0246 35.7319 16.7401 35.7319 16.3904C35.7319 16.0407 36.0164 15.7562 36.3661 15.7562C36.4934 15.7562 36.6156 15.7935 36.72 15.864C37.0551 16.0902 37.5097 16.0023 37.736 15.6674C37.9623 15.3326 37.8743 14.8777 37.5395 14.6514C37.1921 14.4167 36.7864 14.2927 36.3661 14.2927C35.2096 14.2927 34.2686 15.2337 34.2686 16.3903C34.2686 17.5468 35.2096 18.4878 36.3661 18.4878H43.7808C44.1849 18.4878 44.5125 18.1602 44.5125 17.7561C44.5124 17.352 44.1849 17.0246 43.7808 17.0246Z" fill="black"/>
</svg>
